<svg width="479" height="298" viewBox="0 0 479 298" fill="none" xmlns="http://www.w3.org/2000/svg">
<path opacity="0.718736" fill-rule="evenodd" clip-rule="evenodd" d="M331.384 51.2151C299.973 16.2724 234.675 3.32404 167.579 22.6871C84.068 46.7872 29.3944 111.815 45.4619 167.93C59.2305 216.017 120.477 241.956 190.271 233.229C221.795 259.395 275.752 268.193 330.781 252.312C407.056 230.301 456.506 169.213 441.232 115.87C429.776 75.8582 385.158 51.5682 331.384 51.2151Z" fill="url(#paint0_linear)"/>
<path fill-rule="evenodd" clip-rule="evenodd" d="M208.315 186.397C224.463 153.584 240.84 95.6451 279.571 87.829C318.301 80.0128 283.874 129.56 259.283 148.641C234.693 167.723 199.774 203.771 208.315 186.397Z" fill="url(#paint1_linear)"/>
<g style="mix-blend-mode:multiply" opacity="0.33">
<path fill-rule="evenodd" clip-rule="evenodd" d="M285.454 87.038C288.954 90.9545 290.696 94.9509 287.417 106.625C283.011 122.312 239.841 152.478 216.193 168.981C213.5 175.224 210.906 181.135 208.315 186.397C199.774 203.771 234.694 167.719 259.285 148.642C282.483 130.628 314.439 85.5068 285.454 87.038Z" fill="url(#paint2_linear)"/>
</g>
<g style="mix-blend-mode:multiply" opacity="0.33">
<path fill-rule="evenodd" clip-rule="evenodd" d="M261.949 121.297C262.269 120.998 262.559 120.669 262.815 120.316L265.03 117.921C270.028 112.525 275.194 106.944 280.73 101.923C280.951 101.723 281.046 101.422 280.979 101.135C280.913 100.847 280.695 100.616 280.407 100.529C280.12 100.441 279.807 100.511 279.587 100.711C274.5 105.324 269.746 110.382 265.152 115.345C266.776 110.653 267.349 105.673 266.833 100.744C266.802 100.45 266.614 100.194 266.338 100.073C266.063 99.9514 265.742 99.9836 265.498 100.157C265.253 100.33 265.121 100.619 265.152 100.913C265.733 106.495 264.844 112.129 262.571 117.278C262.278 117.98 261.913 118.651 261.482 119.281L257.951 123.098C257.885 123.151 257.826 123.214 257.779 123.284L250.007 131.681C250.657 126.96 250.773 122.184 250.351 117.439C250.312 116.983 249.904 116.646 249.439 116.684C248.975 116.723 248.631 117.124 248.67 117.579C249.161 123.024 248.928 128.508 247.977 133.894L241.053 141.376C240.681 141.405 240.372 141.672 240.297 142.031C240.291 142.09 240.291 142.15 240.297 142.209C238.725 143.911 237.136 145.634 235.564 147.382C235.947 142.644 236.038 137.888 235.837 133.14C235.824 132.845 235.652 132.58 235.386 132.443C235.119 132.307 234.799 132.32 234.545 132.478C234.291 132.637 234.143 132.915 234.156 133.21C234.379 138.465 234.239 143.728 233.735 148.965C233.723 149.105 233.746 149.247 233.802 149.377C231.306 152.229 228.876 155.148 226.657 158.231C221.811 164.906 217.907 172.193 215.051 179.893C214.948 180.17 215.004 180.479 215.197 180.705C215.39 180.931 215.691 181.039 215.987 180.988C216.283 180.936 216.528 180.734 216.631 180.458C219.435 172.897 223.269 165.742 228.027 159.187C232.15 153.499 237.014 148.227 241.734 143.111C242.075 143.149 242.417 143.168 242.76 143.169C244.584 143.169 246.379 142.691 248.124 142.225C248.758 142.056 249.418 141.879 250.053 141.734C254.114 140.811 258.397 140.931 262.541 141.046C262.764 141.053 262.981 140.972 263.143 140.822C263.306 140.672 263.401 140.465 263.407 140.246C263.419 139.793 263.055 139.415 262.592 139.401C258.342 139.282 253.945 139.158 249.675 140.127C249.006 140.279 248.334 140.461 247.682 140.634C246.232 141.076 244.739 141.366 243.227 141.5L248.876 135.399C249.222 135.339 249.494 135.074 249.557 134.735C249.559 134.705 249.559 134.675 249.557 134.644L258.977 124.467C265.022 122.773 272.008 121.079 278.897 122.018C279.197 122.059 279.497 121.939 279.683 121.704C279.869 121.47 279.913 121.155 279.799 120.88C279.684 120.605 279.429 120.41 279.128 120.37C272.899 119.516 266.678 120.703 261.091 122.167L261.819 121.38C261.864 121.355 261.908 121.328 261.949 121.297Z" fill="url(#paint3_linear)"/>
</g>
<path fill-rule="evenodd" clip-rule="evenodd" d="M194.568 183.644C176.984 145.452 159.139 78.0567 116.975 68.9642C74.8122 59.8716 112.286 117.52 139.055 139.716C165.823 161.912 203.872 203.86 194.568 183.644Z" fill="url(#paint4_linear)"/>
<g style="mix-blend-mode:multiply" opacity="0.33">
<path fill-rule="evenodd" clip-rule="evenodd" d="M189.053 184.243C195.144 189.096 197.885 189.877 194.592 182.811C193.886 181.299 193.177 179.733 192.467 178.132C191.548 180.186 190.818 181.772 190.351 182.71C190.079 183.339 189.627 183.872 189.053 184.243H189.053Z" fill="url(#paint5_linear)"/>
<path fill-rule="evenodd" clip-rule="evenodd" d="M139.422 126.478C111.089 101.794 99.7361 84.5156 102.165 69.5805C85.9545 77.4895 116.193 120.814 138.825 139.305C151.866 149.958 167.565 165.207 179.211 175.81C170.867 164.08 158.147 142.779 139.422 126.478Z" fill="url(#paint6_linear)"/>
</g>
<g style="mix-blend-mode:multiply" opacity="0.33">
<path fill-rule="evenodd" clip-rule="evenodd" d="M134.484 106.247C134.139 105.889 133.826 105.5 133.55 105.085L131.172 102.246C125.775 95.8437 120.241 89.2288 114.289 83.2716C113.924 82.8924 113.902 82.2984 114.239 81.8937C114.394 81.7046 114.622 81.5907 114.866 81.5803C115.11 81.57 115.347 81.6643 115.517 81.8396C120.985 87.3096 126.099 93.3043 131.043 99.1865C129.293 93.5959 128.679 87.7099 129.237 81.877C129.25 81.6279 129.362 81.3946 129.549 81.2299C129.736 81.0653 129.981 80.9834 130.229 81.0028C130.745 81.0801 131.104 81.5583 131.035 82.0768C130.404 88.6735 131.354 95.3257 133.804 101.48C134.113 102.309 134.504 103.106 134.97 103.857L138.76 108.37C138.834 108.432 138.897 108.507 138.947 108.591L147.303 118.548C146.605 112.946 146.482 107.287 146.934 101.659C146.941 101.409 147.05 101.173 147.235 101.005C147.42 100.837 147.665 100.751 147.914 100.768C148.431 100.836 148.8 101.305 148.744 101.826C148.224 108.28 148.483 114.774 149.516 121.167L156.959 130.038C157.383 130.075 157.726 130.399 157.789 130.821C157.798 130.89 157.798 130.96 157.789 131.029C159.483 133.048 161.189 135.088 162.883 137.165C162.467 131.545 162.369 125.907 162.588 120.276C162.587 119.941 162.77 119.632 163.064 119.473C163.358 119.315 163.715 119.331 163.994 119.516C164.272 119.702 164.426 120.026 164.394 120.359C164.152 126.589 164.304 132.828 164.846 139.038C164.858 139.2 164.832 139.362 164.772 139.513C167.462 142.893 170.073 146.373 172.464 150.008C177.709 157.995 181.903 166.628 184.943 175.693C185.117 176.187 184.882 176.732 184.403 176.942C184.304 176.981 184.198 177.001 184.092 177C183.706 176.984 183.373 176.725 183.261 176.355C180.274 167.456 176.156 158.982 171.007 151.14C166.569 144.396 161.343 138.143 156.266 132.094C155.9 132.139 155.531 132.162 155.162 132.161C153.198 132.161 151.272 131.595 149.396 131.041C148.711 130.841 148.005 130.625 147.32 130.463C142.953 129.368 138.345 129.509 133.891 129.63C133.64 129.634 133.399 129.534 133.223 129.355C133.048 129.176 132.953 128.932 132.961 128.681C132.944 128.431 133.027 128.185 133.191 127.997C133.355 127.808 133.588 127.694 133.837 127.678C138.403 127.536 143.136 127.39 147.727 128.539C148.445 128.722 149.171 128.956 149.869 129.139C151.421 129.663 153.029 130.008 154.659 130.167L148.586 122.932C148.202 122.848 147.91 122.535 147.851 122.145C147.853 122.109 147.853 122.073 147.851 122.037L137.722 109.964C131.221 107.954 123.699 105.947 116.298 107.05C116.052 107.079 115.805 107.007 115.613 106.85C115.422 106.693 115.302 106.465 115.281 106.218C115.197 105.702 115.537 105.214 116.049 105.115C122.749 104.107 129.441 105.51 135.447 107.246L134.634 106.359C134.58 106.327 134.53 106.289 134.484 106.247Z" fill="url(#paint7_linear)"/>
</g>
<path fill-rule="evenodd" clip-rule="evenodd" d="M180.174 192.471C229.986 172.467 248.874 42.5281 210.835 10.1007C172.796 -22.3267 164.892 28.5919 177.665 88.0956C190.438 147.599 164.421 198.789 180.174 192.471Z" fill="url(#paint8_linear)"/>
<g style="mix-blend-mode:multiply" opacity="0.33">
<path fill-rule="evenodd" clip-rule="evenodd" d="M228.212 100.73C227.28 109.128 221.651 132.072 217.656 133.001C213.662 133.93 218.575 125.366 218.484 122.745C218.393 120.125 212.689 119.475 209.377 123.641C206.066 127.807 201.72 139.054 194.438 146.061C187.157 153.067 190.336 136.763 189.81 119.442C189.285 102.121 171.295 34.7207 175.256 17C171.253 33.4211 172.698 59.344 178.626 87.1415C191.309 146.615 165.475 197.79 181.109 191.471C207.258 180.915 224.822 139.65 230 98.2971C229.029 98.7466 228.355 99.6644 228.212 100.73V100.73Z" fill="url(#paint9_linear)"/>
</g>
<g style="mix-blend-mode:multiply" opacity="0.33">
<path fill-rule="evenodd" clip-rule="evenodd" d="M213.23 140.656C212.928 140.306 212.384 140.254 212.015 140.541C207.831 143.786 204.517 146.845 201.999 149.793C202.186 149.145 202.372 148.486 202.557 147.817C202.616 147.708 202.65 147.589 202.656 147.467C203.894 142.958 205.071 137.996 206.118 132.545C206.693 131.47 214.026 118.043 223.376 115.433C223.597 115.372 223.784 115.229 223.894 115.037C224.005 114.844 224.03 114.618 223.964 114.407C223.829 113.972 223.349 113.724 222.891 113.852C215.822 115.824 210.046 123.128 206.961 127.822C207.293 125.816 207.603 123.757 207.891 121.646C207.893 121.639 207.893 121.632 207.891 121.625C208.22 119.213 208.509 116.73 208.757 114.177C209.073 111.027 209.267 107.832 209.354 104.612C209.509 104.549 209.64 104.442 209.73 104.307C218.037 91.6954 220.585 74.6985 220.607 74.5297C220.649 74.2355 220.524 73.9421 220.277 73.7599C220.031 73.5778 219.701 73.5346 219.412 73.6467C219.123 73.7588 218.919 74.009 218.876 74.3032C218.855 74.4638 216.588 89.5379 209.384 101.619C209.401 99.3512 209.368 97.0797 209.285 94.8041C209.476 94.5818 209.532 94.2806 209.432 94.0095C209.371 93.8448 209.306 93.6801 209.237 93.5113C208.921 86.0051 208.134 78.5319 207.074 71.4045C207.111 71.2943 207.124 71.178 207.113 71.0628C205.655 58.5086 215.549 34.7137 215.649 34.4749C215.763 34.2013 215.715 33.8904 215.524 33.6593C215.332 33.4282 215.025 33.3121 214.719 33.3546C214.413 33.3972 214.154 33.5919 214.039 33.8655C213.706 34.6602 207.333 49.9978 205.642 62.7126C205.248 60.5426 204.837 58.418 204.413 56.3552C204.426 56.2396 204.411 56.1227 204.37 56.0134L204.313 55.8734C202.007 44.4731 199.004 33.2105 195.319 22.1431C195.22 21.8643 194.972 21.657 194.669 21.5991C194.366 21.5413 194.053 21.6417 193.849 21.8626C193.645 22.0835 193.58 22.3914 193.679 22.6701C196.884 32.238 199.567 41.9572 201.718 51.7889C195.587 45.1145 182.785 41.0217 182.136 40.8158C181.682 40.6737 181.193 40.9087 181.044 41.3408C180.894 41.7729 181.141 42.2383 181.595 42.3805C181.773 42.4381 199.407 48.0749 202.691 56.3263C205.048 67.4928 206.615 78.7974 207.381 90.1637C200.679 80.6483 183.832 71.244 183.023 70.8116C182.612 70.6071 182.105 70.7471 181.873 71.1292C181.641 71.5113 181.766 71.9995 182.158 72.2363C182.37 72.3557 203.154 83.9546 207.571 93.8901C207.873 100.606 207.702 107.334 207.061 114.029C206.935 115.264 206.801 116.499 206.658 117.734C202.116 107.568 190.335 101.866 189.785 101.602C189.508 101.47 189.179 101.489 188.921 101.651C188.663 101.814 188.515 102.095 188.534 102.388C188.552 102.682 188.734 102.944 189.011 103.076C189.154 103.146 203.288 110.002 206.174 121.564C205.146 129.184 203.676 136.744 201.769 144.21C199.425 137.939 193.324 128.444 187.453 127.97C186.975 127.932 186.555 128.269 186.514 128.724C186.474 129.179 186.828 129.579 187.306 129.617C192.783 130.058 199.853 141.945 200.921 147.393C195.453 167.156 188.903 177.615 188.807 177.763C188.647 178.026 188.652 178.352 188.82 178.61C188.989 178.869 189.293 179.018 189.612 178.998C189.894 178.974 190.146 178.821 190.287 178.586C190.369 178.455 195.539 170.224 200.558 154.598V154.598C203.093 150.592 207.204 146.408 213.131 141.834C213.311 141.692 213.423 141.487 213.442 141.265C213.461 141.043 213.384 140.824 213.23 140.656Z" fill="url(#paint10_linear)"/>
</g>
<path fill-rule="evenodd" clip-rule="evenodd" d="M406.827 71.6148H426.809C428.123 71.6148 429.187 72.6629 429.187 73.9557L422.051 99.7058C422.051 100.999 420.986 102.047 419.673 102.047H399.691C398.378 102.047 397.312 100.999 397.312 99.7058L404.449 73.9557C404.449 72.6629 405.514 71.6148 406.827 71.6148Z" fill="url(#paint11_linear)"/>
<path fill-rule="evenodd" clip-rule="evenodd" d="M437 82.6809H463.25C464.976 82.6809 466.375 84.0572 466.375 85.7549L457 119.568C457 121.266 455.601 122.642 453.875 122.642H427.625C425.899 122.642 424.5 121.266 424.5 119.568L433.875 85.7549C433.875 84.0572 435.274 82.6809 437 82.6809Z" fill="url(#paint12_linear)"/>
<path fill-rule="evenodd" clip-rule="evenodd" d="M411.687 109.424H437.938C439.663 109.424 441.063 110.8 441.063 112.498L431.687 146.311C431.687 148.009 430.288 149.385 428.562 149.385H402.313C400.587 149.385 399.187 148.009 399.187 146.311L408.563 112.498C408.563 110.8 409.962 109.424 411.687 109.424Z" fill="url(#paint13_linear)"/>
<g opacity="0.2">
<path fill-rule="evenodd" clip-rule="evenodd" d="M426.972 181.625H433.541V265.306H426.972V181.625Z" fill="#8CA4D4"/>
<path fill-rule="evenodd" clip-rule="evenodd" d="M405.079 265.279H455.434V271.736H405.079V265.279Z" fill="#8CA4D4"/>
<path fill-rule="evenodd" clip-rule="evenodd" d="M386.626 175.196H474.2V181.652H386.626V175.196Z" fill="#8CA4D4"/>
<mask id="mask0" mask-type="alpha" maskUnits="userSpaceOnUse" x="386" y="175" width="89" height="7">
<path fill-rule="evenodd" clip-rule="evenodd" d="M386.626 175.196H474.2V181.652H386.626V175.196Z" fill="white"/>
</mask>
<g mask="url(#mask0)">
</g>
</g>
<path fill-rule="evenodd" clip-rule="evenodd" d="M412.585 175.196L421.776 130.615L474.826 131.537L465.756 175.196H412.585Z" fill="#3B2562"/>
<path fill-rule="evenodd" clip-rule="evenodd" d="M386.626 172.69H469.189V175.503H389.128L386.626 172.69Z" fill="#3B2562"/>
<path fill-rule="evenodd" clip-rule="evenodd" d="M415.713 175.503L424.904 130.615L477.954 131.537L469.196 175.503H415.713Z" fill="url(#paint14_linear)"/>
<mask id="mask1" mask-type="alpha" maskUnits="userSpaceOnUse" x="415" y="130" width="63" height="46">
<path fill-rule="evenodd" clip-rule="evenodd" d="M415.713 175.503L424.904 130.615L477.954 131.537L469.196 175.503H415.713Z" fill="white"/>
</mask>
<g mask="url(#mask1)">
<path fill-rule="evenodd" clip-rule="evenodd" d="M447.303 148.755C449.894 148.755 451.994 150.475 451.994 152.598C451.994 154.72 449.894 156.441 447.303 156.441C444.712 156.441 442.611 154.72 442.611 152.598C442.611 150.475 444.712 148.755 447.303 148.755Z" fill="#A1B8E3"/>
</g>
<g opacity="0.5">
<path fill-rule="evenodd" clip-rule="evenodd" d="M18.8318 99.0569C13.3208 145.122 82.3946 243.769 149.906 159.832C263.634 18.4337 360.479 124.681 360.479 124.681" fill="black" fill-opacity="0.01"/>
<path d="M18.8318 99.0569C13.3208 145.122 82.3946 243.769 149.906 159.832C263.634 18.4337 360.479 124.681 360.479 124.681" stroke="url(#paint15_linear)" stroke-width="5" stroke-linecap="round" stroke-dasharray="5 20"/>
</g>
<path fill-rule="evenodd" clip-rule="evenodd" d="M354.6 138.221L361.05 129.853L381.956 142.846L365.943 124.568L373.727 117.301L393.298 151.434L354.6 138.221Z" fill="url(#paint16_linear)"/>
<path fill-rule="evenodd" clip-rule="evenodd" d="M360.828 130.074L365.721 129.413L382.845 143.506L360.828 130.074Z" fill="#E1A846"/>
<path fill-rule="evenodd" clip-rule="evenodd" d="M365.498 129.413L366.165 124.568L382.4 143.066L365.498 129.413Z" fill="#E6B052"/>
<path opacity="0.7" fill-rule="evenodd" clip-rule="evenodd" d="M161.944 273.692C197.219 273.692 225.814 267.965 225.814 260.9C225.814 253.835 197.219 248.108 161.944 248.108C126.67 248.108 98.0752 253.835 98.0752 260.9C98.0752 267.965 126.67 273.692 161.944 273.692Z" fill="url(#paint17_linear)"/>
<path fill-rule="evenodd" clip-rule="evenodd" d="M117.74 252.972C156.88 271.684 214.348 269.212 240.127 218.433C257.157 185.759 220.821 146.634 180.908 119.43C145.086 95.0129 113.223 89.4759 94.5283 103.222C92.3934 104.792 88.5988 104.483 86.875 106.619C39.4233 160.597 78.5994 234.26 117.74 252.972Z" fill="url(#paint18_radial)"/>
<path fill-rule="evenodd" clip-rule="evenodd" d="M141.917 206.22C183.774 232.286 227.003 235.134 241.538 211.952C255.025 186.907 222.306 141.611 180.449 115.545C138.592 89.4795 102.122 85.3479 87.5871 108.53C73.0522 131.711 100.06 180.154 141.917 206.22Z" fill="url(#paint19_radial)"/>
<g filter="url(#filter0_f)">
<path fill-rule="evenodd" clip-rule="evenodd" d="M151.376 187.933C170.144 199.627 189.527 200.905 196.044 190.505C202.091 179.269 187.421 158.948 168.653 147.254C149.886 135.56 133.533 133.706 127.016 144.106C120.499 154.506 132.609 176.239 151.376 187.933Z" fill="#94B0D7"/>
</g>
<path fill-rule="evenodd" clip-rule="evenodd" d="M271.972 264.185C271.36 261.405 270.44 259.338 271.36 255.586C272.28 251.835 282.868 249.708 284.204 250.91C285.54 252.112 285.322 252.755 290.614 255.556C295.906 258.357 311.075 261.614 314.321 265.248C317.568 268.881 318.172 271.283 311.425 271.283C308.253 271.283 294.364 271.283 290.553 271.283C286.807 269.93 285.547 269.201 283.447 267.949C283.018 269.518 283.447 270.855 283.447 270.855H274.458C274.458 270.855 272.584 266.964 271.972 264.185Z" fill="url(#paint20_linear)"/>
<mask id="mask2" mask-type="alpha" maskUnits="userSpaceOnUse" x="270" y="250" width="47" height="22">
<path fill-rule="evenodd" clip-rule="evenodd" d="M271.972 264.185C271.36 261.405 270.44 259.338 271.36 255.586C272.28 251.835 282.868 249.708 284.204 250.91C285.54 252.112 285.322 252.755 290.614 255.556C295.906 258.357 311.075 261.614 314.321 265.248C317.568 268.881 318.172 271.283 311.425 271.283C308.253 271.283 294.364 271.283 290.553 271.283C286.807 269.93 285.547 269.201 283.447 267.949C283.018 269.518 283.447 270.855 283.447 270.855H274.458C274.458 270.855 272.584 266.964 271.972 264.185Z" fill="white"/>
</mask>
<g mask="url(#mask2)">
<g opacity="0.2">
<path fill-rule="evenodd" clip-rule="evenodd" d="M271.995 268.749C273.931 263.776 281.478 254.499 283.665 251.48C285.852 248.461 269.175 255.038 269.175 255.038C269.175 255.038 270.058 273.721 271.995 268.749Z" fill="#3D82F0" style="mix-blend-mode:multiply"/>
</g>
</g>
<path fill-rule="evenodd" clip-rule="evenodd" d="M289.568 188.679C287.577 186.805 285.726 185.661 284.423 182.193C283.121 178.726 290.375 171.353 292.087 171.588C293.799 171.823 293.975 172.449 299.694 171.826C305.414 171.203 315.644 164.27 320.191 165.406C324.738 166.541 328.819 166.564 323.462 170.189C320.944 171.893 311.194 182.276 308.168 184.323C304.461 185.263 303.065 185.362 300.719 185.498C301.23 186.972 302.294 187.801 302.294 187.801L295.157 192.629C295.157 192.629 291.56 190.552 289.568 188.679Z" fill="url(#paint21_linear)"/>
<mask id="mask3" mask-type="alpha" maskUnits="userSpaceOnUse" x="284" y="165" width="43" height="28">
<path fill-rule="evenodd" clip-rule="evenodd" d="M289.568 188.679C287.577 186.805 285.726 185.661 284.423 182.193C283.121 178.726 290.375 171.353 292.087 171.588C293.799 171.823 293.975 172.449 299.694 171.826C305.414 171.203 315.644 164.27 320.191 165.406C324.738 166.541 328.819 166.564 323.462 170.189C320.944 171.893 311.194 182.276 308.168 184.323C304.461 185.263 303.065 185.362 300.719 185.498C301.23 186.972 302.294 187.801 302.294 187.801L295.157 192.629C295.157 192.629 291.56 190.552 289.568 188.679Z" fill="white"/>
</mask>
<g mask="url(#mask3)">
<g opacity="0.2">
<path fill-rule="evenodd" clip-rule="evenodd" d="M292.515 191.897C289.519 185.711 292.605 171.752 291.238 170.516C289.872 169.28 283.188 180.505 283.188 180.505C283.188 180.505 280.009 183.648 285.117 188.346C290.225 193.045 295.512 198.084 292.515 191.897Z" fill="#617FC8" style="mix-blend-mode:multiply"/>
</g>
</g>
<g filter="url(#filter1_i)">
<path fill-rule="evenodd" clip-rule="evenodd" d="M159.999 120.043C173.899 112.666 181.82 91.133 187.561 85.0783C193.302 79.0236 195.837 90.6076 194.888 94.018C193.939 97.4284 186.942 120.351 172.337 138.863C172.337 150.957 158.203 129.746 159.999 120.043Z" fill="url(#paint22_linear)"/>
</g>
<path fill-rule="evenodd" clip-rule="evenodd" d="M154.053 95.6091C154.053 95.6091 187 82.6236 191.454 83.482C195.908 84.3405 182.596 99.4722 179.872 100.693C177.149 101.914 173.447 104.893 169.35 104.999C165.254 105.105 155.838 107.127 155.838 107.127L154.053 95.6091Z" fill="url(#paint23_linear)"/>
<g filter="url(#filter2_i)">
<path fill-rule="evenodd" clip-rule="evenodd" d="M162.188 192.935C166.236 187.492 176.148 176.138 197.484 172.002C218.821 167.866 238.417 164.004 274.386 174.667C277.348 209.278 280.722 244.125 284.128 251.182C281.53 254.332 272.146 256.739 266.641 256.739C264.644 248.946 258.385 230.173 255.206 220.888C252.026 211.602 250.899 200.075 251.513 196.011C240.674 199.08 218.47 208.409 210.685 211.172C202.9 213.936 176.191 222.696 167.35 215.643C158.509 208.59 158.139 198.378 162.188 192.935Z" fill="url(#paint24_linear)"/>
</g>
<mask id="mask4" mask-type="alpha" maskUnits="userSpaceOnUse" x="159" y="167" width="126" height="90">
<path fill-rule="evenodd" clip-rule="evenodd" d="M162.188 192.935C166.236 187.492 176.148 176.138 197.484 172.002C218.821 167.866 238.417 164.004 274.386 174.667C277.348 209.278 280.722 244.125 284.128 251.182C281.53 254.332 272.146 256.739 266.641 256.739C264.644 248.946 258.385 230.173 255.206 220.888C252.026 211.602 250.899 200.075 251.513 196.011C240.674 199.08 218.47 208.409 210.685 211.172C202.9 213.936 176.191 222.696 167.35 215.643C158.509 208.59 158.139 198.378 162.188 192.935Z" fill="white"/>
</mask>
<g mask="url(#mask4)">
<g opacity="0.3">
<path fill-rule="evenodd" clip-rule="evenodd" d="M235.732 202.326C235.732 197.503 247.987 172.047 251.269 169.326C254.55 166.605 244.805 167.009 244.805 167.009C244.805 167.009 222.604 189.974 219.688 202.326C216.773 214.679 235.732 207.15 235.732 202.326Z" fill="url(#paint25_linear)" style="mix-blend-mode:multiply"/>
</g>
</g>
<path fill-rule="evenodd" clip-rule="evenodd" d="M135.482 123.012C134.409 117.648 132.339 108.245 131.926 106.236C131.512 104.227 151.534 111.167 151.534 111.167L154.052 124.319L156.934 146.562C156.934 146.562 136.555 128.375 135.482 123.012Z" fill="url(#paint26_linear)"/>
<mask id="mask5" mask-type="alpha" maskUnits="userSpaceOnUse" x="131" y="105" width="26" height="42">
<path fill-rule="evenodd" clip-rule="evenodd" d="M135.482 123.012C134.409 117.648 132.339 108.245 131.926 106.236C131.512 104.227 151.534 111.167 151.534 111.167L154.052 124.319L156.934 146.562C156.934 146.562 136.555 128.375 135.482 123.012Z" fill="white"/>
</mask>
<g mask="url(#mask5)">
<g opacity="0.2">
<path fill-rule="evenodd" clip-rule="evenodd" d="M133.018 106.795C133.018 108.815 140.616 117.45 144.72 119.817C148.825 122.185 156.22 121.965 156.22 121.965L155.094 110.337L133.018 104.782C133.018 104.782 133.018 104.776 133.018 106.795Z" fill="#FC6E69" style="mix-blend-mode:multiply"/>
</g>
</g>
<path fill-rule="evenodd" clip-rule="evenodd" d="M152.941 118.431C152.941 118.431 160.544 119.664 161.068 120.612C166.011 124.191 170.768 134.841 172.799 140.358C174.83 145.876 178.724 151.574 182.235 156.004C185.746 160.435 187.43 161.349 192.03 164.627C196.63 167.904 198.319 170.505 195.716 172.949C193.113 175.392 178.122 174.444 167.45 187.731C158.128 191.54 158.139 192.933 155.37 184.703C152.6 176.473 129.824 155.895 126.13 152.995C122.436 150.094 123.863 147.308 122.932 138.424C122.001 129.54 115.284 122.337 120.933 122.337C125.385 123.988 129.722 120.612 131.68 120.612C138.812 122.381 140.436 129.377 143.396 127.91C146.357 126.443 148.253 126.443 148.253 126.443C148.944 127.84 149.166 130.232 149.857 131.629C150.548 133.025 153.438 135.827 154.722 138.424L152.452 130.867L153.085 126.348L152.941 118.431Z" fill="white"/>
<path fill-rule="evenodd" clip-rule="evenodd" d="M152.941 118.431C152.941 118.431 160.544 119.664 161.068 120.612C166.011 124.191 170.768 134.841 172.799 140.358C174.83 145.876 178.724 151.574 182.235 156.004C185.746 160.435 187.43 161.349 192.03 164.627C196.63 167.904 198.319 170.505 195.716 172.949C193.113 175.392 178.122 174.444 167.45 187.731C158.128 191.54 158.139 192.933 155.37 184.703C152.6 176.473 129.824 155.895 126.13 152.995C122.436 150.094 123.863 147.308 122.932 138.424C122.001 129.54 115.284 122.337 120.933 122.337C125.385 123.988 129.722 120.612 131.68 120.612C138.812 122.381 140.436 129.377 143.396 127.91C146.357 126.443 148.253 126.443 148.253 126.443C148.944 127.84 149.166 130.232 149.857 131.629C150.548 133.025 153.438 135.827 154.722 138.424L152.452 130.867L153.085 126.348L152.941 118.431Z" fill="url(#paint27_linear)"/>
<mask id="mask6" mask-type="alpha" maskUnits="userSpaceOnUse" x="118" y="118" width="79" height="73">
<path fill-rule="evenodd" clip-rule="evenodd" d="M152.941 118.431C152.941 118.431 160.544 119.664 161.068 120.612C166.011 124.191 170.768 134.841 172.799 140.358C174.83 145.876 178.724 151.574 182.235 156.004C185.746 160.435 187.43 161.349 192.03 164.627C196.63 167.904 198.319 170.505 195.716 172.949C193.113 175.392 178.122 174.444 167.45 187.731C158.128 191.54 158.139 192.933 155.37 184.703C152.6 176.473 129.824 155.895 126.13 152.995C122.436 150.094 123.863 147.308 122.932 138.424C122.001 129.54 115.284 122.337 120.933 122.337C125.385 123.988 129.722 120.612 131.68 120.612C138.812 122.381 140.436 129.377 143.396 127.91C146.357 126.443 148.253 126.443 148.253 126.443C148.944 127.84 149.166 130.232 149.857 131.629C150.548 133.025 153.438 135.827 154.722 138.424L152.452 130.867L153.085 126.348L152.941 118.431Z" fill="white"/>
<path fill-rule="evenodd" clip-rule="evenodd" d="M152.941 118.431C152.941 118.431 160.544 119.664 161.068 120.612C166.011 124.191 170.768 134.841 172.799 140.358C174.83 145.876 178.724 151.574 182.235 156.004C185.746 160.435 187.43 161.349 192.03 164.627C196.63 167.904 198.319 170.505 195.716 172.949C193.113 175.392 178.122 174.444 167.45 187.731C158.128 191.54 158.139 192.933 155.37 184.703C152.6 176.473 129.824 155.895 126.13 152.995C122.436 150.094 123.863 147.308 122.932 138.424C122.001 129.54 115.284 122.337 120.933 122.337C125.385 123.988 129.722 120.612 131.68 120.612C138.812 122.381 140.436 129.377 143.396 127.91C146.357 126.443 148.253 126.443 148.253 126.443C148.944 127.84 149.166 130.232 149.857 131.629C150.548 133.025 153.438 135.827 154.722 138.424L152.452 130.867L153.085 126.348L152.941 118.431Z" stroke="white"/>
</mask>
<g mask="url(#mask6)">
<g opacity="0.6">
<path fill-rule="evenodd" clip-rule="evenodd" d="M153.439 138.375C154.111 139.717 161.465 152.557 163.027 154.403C164.59 156.25 169.712 161.395 171.688 163.342C173.663 165.29 185.771 172.959 185.915 175.364" fill="black" fill-opacity="0.01"/>
<path d="M153.439 138.375C154.111 139.717 161.465 152.557 163.027 154.403C164.59 156.25 169.712 161.395 171.688 163.342C173.663 165.29 185.771 172.959 185.915 175.364" stroke="#D9E8FF" stroke-width="4"/>
</g>
<path opacity="0.3" fill-rule="evenodd" clip-rule="evenodd" d="M144.131 135.965C144.131 135.965 147.506 129.848 149.472 129.848C151.438 129.848 148.784 123.898 148.784 123.898L142.654 128.518L144.131 135.965Z" fill="#CCDFFD"/>
</g>
<path fill-rule="evenodd" clip-rule="evenodd" d="M194.862 169.586C206.067 159.336 238.137 139.499 256.426 136.47C266.903 138.207 294.168 167.658 294.168 167.658C292.939 168.949 289.698 180.396 284.58 183.994C271.69 173.33 258.25 168.351 254.642 162.837C250.14 165.568 238.569 173.543 231.914 185.259C225.259 196.976 220.843 210.324 213.259 210.658C205.674 210.992 194.978 211.855 185.125 205.538C179.403 201.868 162.928 193.689 170.932 188.33C175.519 185.259 190.165 173.883 194.862 169.586Z" fill="url(#paint28_linear)"/>
<path fill-rule="evenodd" clip-rule="evenodd" d="M151.188 84.045C151.947 85.9537 156.111 94.3303 156.512 96.4183C156.913 98.5064 160.876 112.434 158.515 114.579C156.155 116.724 149.077 117.81 147.099 117.123C145.12 116.436 140.868 115.996 139.212 113.099C137.939 110.873 133.894 105.705 132.833 106.001C132.446 106.794 131.095 107.642 130.418 107.098C127.496 104.743 124.99 102.193 126.18 96.4183C127.369 90.6435 131.538 87.7944 136.009 85.9197C140.479 84.045 150.429 82.1364 151.188 84.045Z" fill="url(#paint29_linear)"/>
<path fill-rule="evenodd" clip-rule="evenodd" d="M100.083 116.08C105.499 118.265 123.037 109.567 128.603 110.339C133.719 111.049 127.228 103.076 125.306 101.665C123.385 100.254 84.9698 100.894 82.9535 103.838C80.9371 106.783 95.592 114.268 100.083 116.08Z" fill="url(#paint30_linear)"/>
<mask id="mask7" mask-type="alpha" maskUnits="userSpaceOnUse" x="82" y="100" width="49" height="17">
<path fill-rule="evenodd" clip-rule="evenodd" d="M100.083 116.08C105.499 118.265 123.037 109.567 128.603 110.339C133.719 111.049 127.228 103.076 125.306 101.665C123.385 100.254 84.9698 100.894 82.9535 103.838C80.9371 106.783 95.592 114.268 100.083 116.08Z" fill="white"/>
</mask>
<g mask="url(#mask7)">
<path opacity="0.5" fill-rule="evenodd" clip-rule="evenodd" d="M89.4202 104.113C90.5589 104.526 113.657 114.557 119.371 113.167C125.086 111.778 105.13 118.42 105.13 118.42C105.13 118.42 88.2816 103.7 89.4202 104.113Z" fill="#FA8F87"/>
</g>
<g filter="url(#filter3_i)">
<path fill-rule="evenodd" clip-rule="evenodd" d="M135.173 96.4498C135.173 96.4498 132.559 92.4918 134.579 88.5663C136.6 84.6407 147.267 89.8766 155.906 80.198C164.545 70.5194 156.869 57.4581 147.988 60.0055C139.106 62.5529 141.284 67.1157 142.894 70.5194C144.504 73.9231 136.22 75.2015 130.296 77.5975C124.372 79.9935 119.537 86.4404 120.581 96.4498C121.625 106.459 130.942 114.655 133.908 116.163C133.046 110.248 133.007 107.53 133.007 105.883C129.606 107.449 125.643 99.6811 127.95 97.6375C132.357 93.7337 134.579 102.625 134.579 102.625C134.579 102.625 135.173 101.359 136.22 100.159C135.821 98.018 135.173 96.4498 135.173 96.4498Z" fill="url(#paint31_linear)"/>
</g>
<path fill-rule="evenodd" clip-rule="evenodd" d="M153.126 126.137C155.83 127.094 156.349 132.073 156.813 133.477C157.277 134.881 154.864 122.472 154.864 122.472C154.014 123.639 152.198 115.715 152.539 116.877C153.458 120.002 152.688 123.542 153.126 126.137Z" fill="#CCDFFD"/>
<path fill-rule="evenodd" clip-rule="evenodd" d="M144.301 138.681C144.301 134.271 146.061 128.488 148.232 126.425C145.083 126.619 135.817 121.102 134.828 118.027C133.839 114.951 133.655 114.512 133.655 114.512C133.655 114.512 131.748 118.19 131.748 120.523C133.098 125.583 139.119 134.369 144.301 138.681Z" fill="url(#paint32_linear)"/>
<g filter="url(#filter4_i)">
<path fill-rule="evenodd" clip-rule="evenodd" d="M117.227 121.125C108.079 116.114 89.8058 101.866 85.0029 103.029C80.2001 104.192 81.4465 106.352 81.4465 111.307C81.4465 116.262 106.547 132.995 110.412 141.274C112.067 144.819 116.305 153.574 123.892 152.147C131.479 150.72 129.178 143.207 127.543 137.147C125.62 130.024 122.86 124.211 117.227 121.125Z" fill="url(#paint33_linear)"/>
</g>
<path fill-rule="evenodd" clip-rule="evenodd" d="M141.822 96.6291C143.423 97.0536 145.425 96.743 146.494 95.5792Z" fill="black" fill-opacity="0.01"/>
<path d="M141.822 96.6291C143.423 97.0536 145.425 96.743 146.494 95.5792" stroke="#143B8C" stroke-width="3" stroke-linecap="round"/>
<path fill-rule="evenodd" clip-rule="evenodd" d="M154.667 93.2385C156.05 93.663 157.779 93.3524 158.702 92.1886Z" fill="black" fill-opacity="0.01"/>
<path d="M154.667 93.2385C156.05 93.663 157.779 93.3524 158.702 92.1886" stroke="#143B8C" stroke-width="3" stroke-linecap="round"/>
<path fill-rule="evenodd" clip-rule="evenodd" d="M138.284 94.1291L140.004 101.699L149.585 99.4072L148.141 91.5227L138.284 94.1291Z" fill="black" fill-opacity="0.01" stroke="#143B8C" stroke-width="2"/>
<path fill-rule="evenodd" clip-rule="evenodd" d="M152.285 90.2609L153.846 97.9957L161.02 95.9453L159.71 88.2047L152.285 90.2609Z" fill="black" fill-opacity="0.01" stroke="#143B8C" stroke-width="2"/>
<path fill-rule="evenodd" clip-rule="evenodd" d="M138.09 95.0814L132.441 96.6226L133.386 98.5015L139.491 99.938L138.09 95.0814Z" fill="#143B8C"/>
<path fill-rule="evenodd" clip-rule="evenodd" d="M148.459 93.9098L152.769 92.5865L153.243 94.8545L148.768 96.0981L148.459 93.9098Z" fill="#143B8C"/>
<path fill-rule="evenodd" clip-rule="evenodd" d="M141.917 206.22C183.774 232.286 227.003 235.134 241.538 211.952C258.994 178.158 199.139 192.781 157.282 166.715C115.425 140.649 116.459 118.891 87.5872 108.53C73.0521 131.711 100.06 180.154 141.917 206.22Z" fill="black" fill-opacity="0.01"/>
<mask id="mask8" mask-type="alpha" maskUnits="userSpaceOnUse" x="83" y="108" width="162" height="120">
<path fill-rule="evenodd" clip-rule="evenodd" d="M141.917 206.22C183.774 232.286 227.003 235.134 241.538 211.952C258.994 178.158 199.139 192.781 157.282 166.715C115.425 140.649 116.459 118.891 87.5872 108.53C73.0521 131.711 100.06 180.154 141.917 206.22Z" fill="white"/>
</mask>
<g mask="url(#mask8)">
<g filter="url(#filter5_i)">
<path fill-rule="evenodd" clip-rule="evenodd" d="M67.0435 173.314C88.8907 187.453 113.917 187.689 122.941 173.84C131.966 159.991 121.571 137.302 99.7236 123.163C77.8764 109.024 52.8499 108.788 43.8256 122.637C34.8013 136.486 45.1962 159.175 67.0435 173.314Z" fill="#EEF5FF"/>
</g>
<g filter="url(#filter6_i)">
<path fill-rule="evenodd" clip-rule="evenodd" d="M143.689 229.671C159.789 222.189 164.795 198.926 154.868 177.712C144.942 156.497 123.843 145.365 107.742 152.847C91.6416 160.33 86.6362 183.593 96.5625 204.807C106.489 226.021 127.588 237.153 143.689 229.671Z" fill="#EEF5FF"/>
</g>
<g filter="url(#filter7_i)">
<path fill-rule="evenodd" clip-rule="evenodd" d="M185.443 265.427C201.544 257.945 206.549 234.682 196.623 213.467C186.697 192.253 165.598 181.121 149.497 188.603C133.396 196.085 128.391 219.349 138.317 240.563C148.244 261.777 169.343 272.909 185.443 265.427Z" fill="#EEF5FF"/>
</g>
<g filter="url(#filter8_i)">
<path fill-rule="evenodd" clip-rule="evenodd" d="M263.386 277.448C279.486 269.966 284.492 246.703 274.566 225.489C264.639 204.274 243.54 193.142 227.44 200.624C211.339 208.107 206.333 231.37 216.26 252.584C226.186 273.798 247.285 284.93 263.386 277.448Z" fill="#EEF5FF"/>
</g>
<g filter="url(#filter9_i)">
<path fill-rule="evenodd" clip-rule="evenodd" d="M208.235 253.938C225.868 256.096 241.504 246.955 243.159 233.522C244.814 220.089 231.861 207.45 214.229 205.292C196.596 203.135 180.96 212.275 179.305 225.709C177.65 239.142 190.603 251.781 208.235 253.938Z" fill="#EEF5FF"/>
</g>
</g>
<path fill-rule="evenodd" clip-rule="evenodd" d="M159.72 140.086C159.72 140.086 167.041 138.706 167.918 137.725C168.796 136.744 173.754 148.08 173.754 148.08L171.347 150.803H165.609L159.72 140.086Z" fill="url(#paint34_linear)"/>
<g opacity="0.6">
<path fill-rule="evenodd" clip-rule="evenodd" d="M19.5 61.3071C29.933 61.3071 38.3906 69.8313 38.3906 80.3465C38.3906 90.8616 29.933 99.3858 19.5 99.3858C9.06699 99.3858 0.609375 90.8616 0.609375 80.3465C0.609375 69.8313 9.06699 61.3071 19.5 61.3071Z" fill="url(#paint35_linear)"/>
<mask id="mask9" mask-type="alpha" maskUnits="userSpaceOnUse" x="0" y="61" width="39" height="39">
<path fill-rule="evenodd" clip-rule="evenodd" d="M19.5 61.3071C29.933 61.3071 38.3906 69.8313 38.3906 80.3465C38.3906 90.8616 29.933 99.3858 19.5 99.3858C9.06699 99.3858 0.609375 90.8616 0.609375 80.3465C0.609375 69.8313 9.06699 61.3071 19.5 61.3071Z" fill="white"/>
</mask>
<g mask="url(#mask9)">
</g>
<path d="M19.7304 67.344V81.043L25.9505 87.3121" stroke="white" stroke-width="6" stroke-linecap="round" stroke-linejoin="round"/>
</g>
<path opacity="0.7" fill-rule="evenodd" clip-rule="evenodd" d="M74.8727 263.287C87.8411 263.287 98.354 265.701 98.354 268.68C98.354 271.658 87.8411 274.073 74.8727 274.073C61.9043 274.073 51.3914 271.658 51.3914 268.68C51.3914 265.701 61.9043 263.287 74.8727 263.287Z" fill="url(#paint36_linear)"/>
<path fill-rule="evenodd" clip-rule="evenodd" d="M111.172 237.961C113.014 241.243 114.046 244.919 114.046 248.801C114.046 262.662 100.89 273.899 84.6598 273.899C68.4301 273.899 55.2734 262.662 55.2734 248.801C55.2734 244.693 56.429 240.815 58.4779 237.393C71.496 239.487 97.4076 239.352 111.172 237.961Z" fill="url(#paint37_linear)"/>
<mask id="mask10" mask-type="alpha" maskUnits="userSpaceOnUse" x="55" y="237" width="60" height="37">
<path fill-rule="evenodd" clip-rule="evenodd" d="M111.172 237.961C113.014 241.243 114.046 244.919 114.046 248.801C114.046 262.662 100.89 273.899 84.6598 273.899C68.4301 273.899 55.2734 262.662 55.2734 248.801C55.2734 244.693 56.429 240.815 58.4779 237.393C71.496 239.487 97.4076 239.352 111.172 237.961Z" fill="white"/>
</mask>
<g mask="url(#mask10)">
</g>
<path fill-rule="evenodd" clip-rule="evenodd" d="M84.8643 232.415C99.6288 232.415 111.598 235.294 111.598 238.845C111.598 242.396 99.6288 245.275 84.8643 245.275C70.0997 245.275 58.1307 242.396 58.1307 238.845C58.1307 235.294 70.0997 232.415 84.8643 232.415Z" fill="url(#paint38_linear)"/>
<mask id="mask11" mask-type="alpha" maskUnits="userSpaceOnUse" x="58" y="232" width="54" height="14">
<path fill-rule="evenodd" clip-rule="evenodd" d="M84.8643 232.415C99.6288 232.415 111.598 235.294 111.598 238.845C111.598 242.396 99.6288 245.275 84.8643 245.275C70.0997 245.275 58.1307 242.396 58.1307 238.845C58.1307 235.294 70.0997 232.415 84.8643 232.415Z" fill="white"/>
</mask>
<g mask="url(#mask11)">
</g>
<g filter="url(#filter10_i)">
<path fill-rule="evenodd" clip-rule="evenodd" d="M82.8768 233.402C81.3984 223.124 77.3314 208.281 65.1047 192.294C57.9023 182.877 57.8788 159.944 56.8386 157.415C62.4902 159.368 72.6427 164.401 82.8768 178.592C93.605 193.468 86.7992 223.807 82.8768 233.402Z" fill="url(#paint39_linear)"/>
</g>
<mask id="mask12" mask-type="alpha" maskUnits="userSpaceOnUse" x="56" y="157" width="33" height="77">
<path fill-rule="evenodd" clip-rule="evenodd" d="M82.8768 233.402C81.3984 223.124 77.3314 208.281 65.1047 192.294C57.9023 182.877 57.8788 159.944 56.8386 157.415C62.4902 159.368 72.6427 164.401 82.8768 178.592C93.605 193.468 86.7992 223.807 82.8768 233.402Z" fill="white"/>
</mask>
<g mask="url(#mask12)">
<g style="mix-blend-mode:multiply" opacity="0.5">
<path fill-rule="evenodd" clip-rule="evenodd" d="M82.4636 233.402C83.5918 208.417 80.4954 192.648 70.7602 177.761Z" fill="black" fill-opacity="0.01"/>
<path d="M82.4636 233.402C83.5918 208.417 80.4954 192.648 70.7602 177.761" stroke="#489C71" stroke-width="3"/>
</g>
</g>
<g filter="url(#filter11_i)">
<path fill-rule="evenodd" clip-rule="evenodd" d="M82.9225 243.952C78.355 236.613 70.2853 226.667 55.6062 218.602C46.9592 213.851 39.2677 196.37 37.6277 194.793C42.5936 194.374 52.0248 194.785 64.5826 202.154C77.7466 209.877 82.7047 235.311 82.9225 243.952Z" fill="url(#paint40_linear)"/>
</g>
<mask id="mask13" mask-type="alpha" maskUnits="userSpaceOnUse" x="37" y="194" width="46" height="50">
<path fill-rule="evenodd" clip-rule="evenodd" d="M82.9225 243.952C78.355 236.613 70.2853 226.667 55.6062 218.602C46.9592 213.851 39.2677 196.37 37.6277 194.793C42.5936 194.374 52.0248 194.785 64.5826 202.154C77.7466 209.877 82.7047 235.311 82.9225 243.952Z" fill="white"/>
</mask>
<g mask="url(#mask13)">
<g style="mix-blend-mode:multiply" opacity="0.5">
<path fill-rule="evenodd" clip-rule="evenodd" d="M82.6071 244.092C75.1079 224.657 67.4687 213.677 55.0589 205.61Z" fill="black" fill-opacity="0.01"/>
<path d="M82.6071 244.092C75.1079 224.657 67.4687 213.677 55.0589 205.61" stroke="#489C71" stroke-width="3"/>
</g>
</g>
<g filter="url(#filter12_i)">
<path fill-rule="evenodd" clip-rule="evenodd" d="M86.2029 244.958C89.8042 237.058 96.5574 226.109 110.137 216.177C118.136 210.326 123.539 191.923 124.969 190.14C119.969 190.366 110.628 191.998 99.0712 200.962C86.9567 210.358 85.3034 236.325 86.2029 244.958Z" fill="url(#paint41_linear)"/>
</g>
<mask id="mask14" mask-type="alpha" maskUnits="userSpaceOnUse" x="85" y="190" width="40" height="55">
<path fill-rule="evenodd" clip-rule="evenodd" d="M86.2029 244.958C89.8042 237.058 96.5574 226.109 110.137 216.177C118.136 210.326 123.539 191.923 124.969 190.14C119.969 190.366 110.628 191.998 99.0712 200.962C86.9567 210.358 85.3034 236.325 86.2029 244.958Z" fill="white"/>
</mask>
<g mask="url(#mask14)">
<g style="mix-blend-mode:multiply" opacity="0.5">
<path fill-rule="evenodd" clip-rule="evenodd" d="M85.1556 244.941C90.1148 224.618 96.3055 212.694 107.625 203.054Z" fill="black" fill-opacity="0.01"/>
<path d="M85.1556 244.941C90.1148 224.618 96.3055 212.694 107.625 203.054" stroke="#489C71" stroke-width="3"/>
</g>
</g>
<defs>
<filter id="filter0_f" x="25.254" y="37.307" width="272.152" height="260.242" filterUnits="userSpaceOnUse" color-interpolation-filters="sRGB">
<feFlood flood-opacity="0" result="BackgroundImageFix"/>
<feBlend mode="normal" in="SourceGraphic" in2="BackgroundImageFix" result="shape"/>
<feGaussianBlur stdDeviation="49.9909" result="effect1_foregroundBlur"/>
</filter>
<filter id="filter1_i" x="159.841" y="83.3556" width="35.2417" height="60.1359" filterUnits="userSpaceOnUse" color-interpolation-filters="sRGB">
<feFlood flood-opacity="0" result="BackgroundImageFix"/>
<feBlend mode="normal" in="SourceGraphic" in2="BackgroundImageFix" result="shape"/>
<feColorMatrix in="SourceAlpha" type="matrix" values="0 0 0 0 0 0 0 0 0 0 0 0 0 0 0 0 0 0 127 0" result="hardAlpha"/>
<feOffset dy="1"/>
<feGaussianBlur stdDeviation="6"/>
<feComposite in2="hardAlpha" operator="arithmetic" k2="-1" k3="1"/>
<feColorMatrix type="matrix" values="0 0 0 0 0.898039 0 0 0 0 0.941176 0 0 0 0 1 0 0 0 1 0"/>
<feBlend mode="normal" in2="shape" result="effect1_innerShadow"/>
</filter>
<filter id="filter2_i" x="159.708" y="167.776" width="140.421" height="92.9626" filterUnits="userSpaceOnUse" color-interpolation-filters="sRGB">
<feFlood flood-opacity="0" result="BackgroundImageFix"/>
<feBlend mode="normal" in="SourceGraphic" in2="BackgroundImageFix" result="shape"/>
<feColorMatrix in="SourceAlpha" type="matrix" values="0 0 0 0 0 0 0 0 0 0 0 0 0 0 0 0 0 0 127 0" result="hardAlpha"/>
<feOffset dx="16" dy="4"/>
<feGaussianBlur stdDeviation="14"/>
<feComposite in2="hardAlpha" operator="arithmetic" k2="-1" k3="1"/>
<feColorMatrix type="matrix" values="0 0 0 0 0.141176 0 0 0 0 0.109804 0 0 0 0 0.329412 0 0 0 1 0"/>
<feBlend mode="normal" in2="shape" result="effect1_innerShadow"/>
</filter>
<filter id="filter3_i" x="120.438" y="59.6825" width="52.2488" height="68.4801" filterUnits="userSpaceOnUse" color-interpolation-filters="sRGB">
<feFlood flood-opacity="0" result="BackgroundImageFix"/>
<feBlend mode="normal" in="SourceGraphic" in2="BackgroundImageFix" result="shape"/>
<feColorMatrix in="SourceAlpha" type="matrix" values="0 0 0 0 0 0 0 0 0 0 0 0 0 0 0 0 0 0 127 0" result="hardAlpha"/>
<feOffset dx="13" dy="12"/>
<feGaussianBlur stdDeviation="9"/>
<feComposite in2="hardAlpha" operator="arithmetic" k2="-1" k3="1"/>
<feColorMatrix type="matrix" values="0 0 0 0 0 0 0 0 0 0 0 0 0 0 0 0 0 0 0.139889 0"/>
<feBlend mode="normal" in2="shape" result="effect1_innerShadow"/>
</filter>
<filter id="filter4_i" x="81.3008" y="94.9619" width="59.8938" height="57.3408" filterUnits="userSpaceOnUse" color-interpolation-filters="sRGB">
<feFlood flood-opacity="0" result="BackgroundImageFix"/>
<feBlend mode="normal" in="SourceGraphic" in2="BackgroundImageFix" result="shape"/>
<feColorMatrix in="SourceAlpha" type="matrix" values="0 0 0 0 0 0 0 0 0 0 0 0 0 0 0 0 0 0 127 0" result="hardAlpha"/>
<feOffset dx="18" dy="-8"/>
<feGaussianBlur stdDeviation="6"/>
<feComposite in2="hardAlpha" operator="arithmetic" k2="-1" k3="1"/>
<feColorMatrix type="matrix" values="0 0 0 0 0.898039 0 0 0 0 0.941176 0 0 0 0 1 0 0 0 1 0"/>
<feBlend mode="normal" in2="shape" result="effect1_innerShadow"/>
</filter>
<filter id="filter5_i" x="19.5723" y="91.4026" width="106.622" height="92.6721" filterUnits="userSpaceOnUse" color-interpolation-filters="sRGB">
<feFlood flood-opacity="0" result="BackgroundImageFix"/>
<feBlend mode="normal" in="SourceGraphic" in2="BackgroundImageFix" result="shape"/>
<feColorMatrix in="SourceAlpha" type="matrix" values="0 0 0 0 0 0 0 0 0 0 0 0 0 0 0 0 0 0 127 0" result="hardAlpha"/>
<feOffset dx="-27.5" dy="-39.3"/>
<feGaussianBlur stdDeviation="10.5"/>
<feComposite in2="hardAlpha" operator="arithmetic" k2="-1" k3="1"/>
<feColorMatrix type="matrix" values="0 0 0 0 0.580392 0 0 0 0 0.67451 0 0 0 0 0.854902 0 0 0 0.43 0"/>
<feBlend mode="normal" in2="shape" result="effect1_innerShadow"/>
</filter>
<filter id="filter6_i" x="76.5624" y="129.517" width="83.4055" height="102.484" filterUnits="userSpaceOnUse" color-interpolation-filters="sRGB">
<feFlood flood-opacity="0" result="BackgroundImageFix"/>
<feBlend mode="normal" in="SourceGraphic" in2="BackgroundImageFix" result="shape"/>
<feColorMatrix in="SourceAlpha" type="matrix" values="0 0 0 0 0 0 0 0 0 0 0 0 0 0 0 0 0 0 127 0" result="hardAlpha"/>
<feOffset dx="-14.9" dy="-24.9"/>
<feGaussianBlur stdDeviation="10.5"/>
<feComposite in2="hardAlpha" operator="arithmetic" k2="-1" k3="1"/>
<feColorMatrix type="matrix" values="0 0 0 0 0.580392 0 0 0 0 0.67451 0 0 0 0 0.854902 0 0 0 0.43 0"/>
<feBlend mode="normal" in2="shape" result="effect1_innerShadow"/>
</filter>
<filter id="filter7_i" x="112.217" y="173.573" width="89.5055" height="94.1842" filterUnits="userSpaceOnUse" color-interpolation-filters="sRGB">
<feFlood flood-opacity="0" result="BackgroundImageFix"/>
<feBlend mode="normal" in="SourceGraphic" in2="BackgroundImageFix" result="shape"/>
<feColorMatrix in="SourceAlpha" type="matrix" values="0 0 0 0 0 0 0 0 0 0 0 0 0 0 0 0 0 0 127 0" result="hardAlpha"/>
<feOffset dx="-24.9" dy="-12.7"/>
<feGaussianBlur stdDeviation="10.5"/>
<feComposite in2="hardAlpha" operator="arithmetic" k2="-1" k3="1"/>
<feColorMatrix type="matrix" values="0 0 0 0 0.580392 0 0 0 0 0.67451 0 0 0 0 0.854902 0 0 0 0.43 0"/>
<feBlend mode="normal" in2="shape" result="effect1_innerShadow"/>
</filter>
<filter id="filter8_i" x="201.26" y="198.294" width="78.4055" height="94.0842" filterUnits="userSpaceOnUse" color-interpolation-filters="sRGB">
<feFlood flood-opacity="0" result="BackgroundImageFix"/>
<feBlend mode="normal" in="SourceGraphic" in2="BackgroundImageFix" result="shape"/>
<feColorMatrix in="SourceAlpha" type="matrix" values="0 0 0 0 0 0 0 0 0 0 0 0 0 0 0 0 0 0 127 0" result="hardAlpha"/>
<feOffset dx="-9.9" dy="12.6"/>
<feGaussianBlur stdDeviation="10.5"/>
<feComposite in2="hardAlpha" operator="arithmetic" k2="-1" k3="1"/>
<feColorMatrix type="matrix" values="0 0 0 0 0.580392 0 0 0 0 0.67451 0 0 0 0 0.854902 0 0 0 0.43 0"/>
<feBlend mode="normal" in2="shape" result="effect1_innerShadow"/>
</filter>
<filter id="filter9_i" x="160.363" y="204.977" width="82.9387" height="51.8769" filterUnits="userSpaceOnUse" color-interpolation-filters="sRGB">
<feFlood flood-opacity="0" result="BackgroundImageFix"/>
<feBlend mode="normal" in="SourceGraphic" in2="BackgroundImageFix" result="shape"/>
<feColorMatrix in="SourceAlpha" type="matrix" values="0 0 0 0 0 0 0 0 0 0 0 0 0 0 0 0 0 0 127 0" result="hardAlpha"/>
<feOffset dx="-18.8" dy="2.6"/>
<feGaussianBlur stdDeviation="10.5"/>
<feComposite in2="hardAlpha" operator="arithmetic" k2="-1" k3="1"/>
<feColorMatrix type="matrix" values="0 0 0 0 0.580392 0 0 0 0 0.67451 0 0 0 0 0.854902 0 0 0 0.43 0"/>
<feBlend mode="normal" in2="shape" result="effect1_innerShadow"/>
</filter>
<filter id="filter10_i" x="56.8389" y="147.415" width="31.8024" height="85.9869" filterUnits="userSpaceOnUse" color-interpolation-filters="sRGB">
<feFlood flood-opacity="0" result="BackgroundImageFix"/>
<feBlend mode="normal" in="SourceGraphic" in2="BackgroundImageFix" result="shape"/>
<feColorMatrix in="SourceAlpha" type="matrix" values="0 0 0 0 0 0 0 0 0 0 0 0 0 0 0 0 0 0 127 0" result="hardAlpha"/>
<feOffset dy="-10"/>
<feGaussianBlur stdDeviation="11"/>
<feComposite in2="hardAlpha" operator="arithmetic" k2="-1" k3="1"/>
<feColorMatrix type="matrix" values="0 0 0 0 0.221483 0 0 0 0 0.77854 0 0 0 0 0.610041 0 0 0 1 0"/>
<feBlend mode="normal" in2="shape" result="effect1_innerShadow"/>
</filter>
<filter id="filter11_i" x="37.6279" y="184.68" width="45.2947" height="59.2719" filterUnits="userSpaceOnUse" color-interpolation-filters="sRGB">
<feFlood flood-opacity="0" result="BackgroundImageFix"/>
<feBlend mode="normal" in="SourceGraphic" in2="BackgroundImageFix" result="shape"/>
<feColorMatrix in="SourceAlpha" type="matrix" values="0 0 0 0 0 0 0 0 0 0 0 0 0 0 0 0 0 0 127 0" result="hardAlpha"/>
<feOffset dy="-10"/>
<feGaussianBlur stdDeviation="11"/>
<feComposite in2="hardAlpha" operator="arithmetic" k2="-1" k3="1"/>
<feColorMatrix type="matrix" values="0 0 0 0 0.221483 0 0 0 0 0.77854 0 0 0 0 0.610041 0 0 0 1 0"/>
<feBlend mode="normal" in2="shape" result="effect1_innerShadow"/>
</filter>
<filter id="filter12_i" x="85.9966" y="180.14" width="38.9724" height="64.8182" filterUnits="userSpaceOnUse" color-interpolation-filters="sRGB">
<feFlood flood-opacity="0" result="BackgroundImageFix"/>
<feBlend mode="normal" in="SourceGraphic" in2="BackgroundImageFix" result="shape"/>
<feColorMatrix in="SourceAlpha" type="matrix" values="0 0 0 0 0 0 0 0 0 0 0 0 0 0 0 0 0 0 127 0" result="hardAlpha"/>
<feOffset dy="-10"/>
<feGaussianBlur stdDeviation="11"/>
<feComposite in2="hardAlpha" operator="arithmetic" k2="-1" k3="1"/>
<feColorMatrix type="matrix" values="0 0 0 0 0.221483 0 0 0 0 0.77854 0 0 0 0 0.610041 0 0 0 1 0"/>
<feBlend mode="normal" in2="shape" result="effect1_innerShadow"/>
</filter>
<linearGradient id="paint0_linear" x1="-29.261" y1="103.665" x2="68.6015" y2="355.468" gradientUnits="userSpaceOnUse">
<stop stop-color="#C889FF"/>
<stop offset="1" stop-color="#AEA3EB"/>
</linearGradient>
<linearGradient id="paint1_linear" x1="207" y1="190.998" x2="296.997" y2="190.998" gradientUnits="userSpaceOnUse">
<stop stop-color="#0AEDBB"/>
<stop offset="1" stop-color="#22E1F6"/>
</linearGradient>
<linearGradient id="paint2_linear" x1="207" y1="190.987" x2="297" y2="190.987" gradientUnits="userSpaceOnUse">
<stop stop-color="#006076"/>
<stop offset="1" stop-color="#002661"/>
</linearGradient>
<linearGradient id="paint3_linear" x1="214.984" y1="181.003" x2="280.999" y2="181.003" gradientUnits="userSpaceOnUse">
<stop stop-color="#006076"/>
<stop offset="1" stop-color="#002661"/>
</linearGradient>
<linearGradient id="paint4_linear" x1="196.002" y1="67.9991" x2="97.9984" y2="67.9991" gradientUnits="userSpaceOnUse">
<stop stop-color="#0AEDBB"/>
<stop offset="1" stop-color="#22E1F6"/>
</linearGradient>
<linearGradient id="paint5_linear" x1="189.053" y1="188.003" x2="195.999" y2="188.003" gradientUnits="userSpaceOnUse">
<stop stop-color="#006076"/>
<stop offset="1" stop-color="#002661"/>
</linearGradient>
<linearGradient id="paint6_linear" x1="97.5667" y1="175.806" x2="179.198" y2="175.806" gradientUnits="userSpaceOnUse">
<stop stop-color="#006076"/>
<stop offset="1" stop-color="#002661"/>
</linearGradient>
<linearGradient id="paint7_linear" x1="184.992" y1="81.0163" x2="114.002" y2="81.0163" gradientUnits="userSpaceOnUse">
<stop stop-color="#006076"/>
<stop offset="1" stop-color="#002661"/>
</linearGradient>
<linearGradient id="paint8_linear" x1="168.547" y1="204.496" x2="233.832" y2="204.01" gradientUnits="userSpaceOnUse">
<stop stop-color="#0AEDBB"/>
<stop offset="1" stop-color="#22E1F6"/>
</linearGradient>
<linearGradient id="paint9_linear" x1="173" y1="191.997" x2="229.996" y2="191.997" gradientUnits="userSpaceOnUse">
<stop stop-color="#006076"/>
<stop offset="1" stop-color="#002661"/>
</linearGradient>
<linearGradient id="paint10_linear" x1="182.635" y1="174.951" x2="223.041" y2="174.723" gradientUnits="userSpaceOnUse">
<stop stop-color="#006076"/>
<stop offset="1" stop-color="#002661"/>
</linearGradient>
<linearGradient id="paint11_linear" x1="392.265" y1="79.6671" x2="409.389" y2="108.469" gradientUnits="userSpaceOnUse">
<stop stop-color="white" stop-opacity="0.152485"/>
<stop offset="1" stop-color="#DEDEDE"/>
</linearGradient>
<linearGradient id="paint12_linear" x1="417.951" y1="93.2577" x2="439.849" y2="130.832" gradientUnits="userSpaceOnUse">
<stop stop-color="white" stop-opacity="0.152485"/>
<stop offset="1" stop-color="#DEDEDE"/>
</linearGradient>
<linearGradient id="paint13_linear" x1="392.638" y1="120.085" x2="414.782" y2="157.798" gradientUnits="userSpaceOnUse">
<stop stop-color="white" stop-opacity="0.152485"/>
<stop offset="1" stop-color="#DEDEDE"/>
</linearGradient>
<linearGradient id="paint14_linear" x1="495.969" y1="162.866" x2="472.712" y2="124.125" gradientUnits="userSpaceOnUse">
<stop stop-color="#2269F9"/>
<stop offset="1" stop-color="#3838D5"/>
</linearGradient>
<linearGradient id="paint15_linear" x1="-161.974" y1="371.613" x2="65.7464" y2="-44.8646" gradientUnits="userSpaceOnUse">
<stop stop-color="#C6D4ED"/>
<stop offset="1" stop-color="#F6F6F6"/>
</linearGradient>
<linearGradient id="paint16_linear" x1="357.193" y1="160.343" x2="398.716" y2="153.802" gradientUnits="userSpaceOnUse">
<stop stop-color="#FDAE6B"/>
<stop offset="1" stop-color="#FEDE5F"/>
</linearGradient>
<linearGradient id="paint17_linear" x1="226.123" y1="247.491" x2="97.4565" y2="247.491" gradientUnits="userSpaceOnUse">
<stop stop-color="#D9E5F6" stop-opacity="0.712636"/>
<stop offset="1" stop-color="#B2C6EA"/>
</linearGradient>
<radialGradient id="paint18_radial" cx="0" cy="0" r="1" gradientUnits="userSpaceOnUse" gradientTransform="translate(130.961 172.44) rotate(-67.6984) scale(77.4366 136.161)">
<stop stop-color="#5C47D6"/>
<stop offset="1" stop-color="#241C54"/>
</radialGradient>
<radialGradient id="paint19_radial" cx="0" cy="0" r="1" gradientUnits="userSpaceOnUse" gradientTransform="translate(169.496 127.886) rotate(108.525) scale(81.741 376.54)">
<stop stop-color="#F4F8FF"/>
<stop offset="1" stop-color="#89B1E9"/>
</radialGradient>
<linearGradient id="paint20_linear" x1="284.156" y1="251.775" x2="281.026" y2="275.306" gradientUnits="userSpaceOnUse">
<stop stop-color="#0E005F"/>
<stop offset="1" stop-color="#0F0D1B"/>
</linearGradient>
<linearGradient id="paint21_linear" x1="282.724" y1="161.529" x2="279.626" y2="191.296" gradientUnits="userSpaceOnUse">
<stop stop-color="#0E1B81"/>
<stop offset="1" stop-color="#0F0D1B"/>
</linearGradient>
<linearGradient id="paint22_linear" x1="179.302" y1="79.624" x2="151.345" y2="111.559" gradientUnits="userSpaceOnUse">
<stop stop-color="#F5F8FF"/>
<stop offset="1" stop-color="white"/>
</linearGradient>
<linearGradient id="paint23_linear" x1="174.935" y1="115.436" x2="186.287" y2="84.4859" gradientUnits="userSpaceOnUse">
<stop stop-color="#FABFB9"/>
<stop offset="1" stop-color="#FEDBCA"/>
</linearGradient>
<linearGradient id="paint24_linear" x1="238.235" y1="233.698" x2="273.372" y2="198.105" gradientUnits="userSpaceOnUse">
<stop stop-color="#241C54"/>
<stop offset="1" stop-color="#5C47D6"/>
</linearGradient>
<linearGradient id="paint25_linear" x1="245.704" y1="219.576" x2="267.132" y2="199.286" gradientUnits="userSpaceOnUse">
<stop stop-color="#002343"/>
<stop offset="1" stop-color="#1A72FF" stop-opacity="0.436934"/>
</linearGradient>
<linearGradient id="paint26_linear" x1="136.404" y1="110.919" x2="136.404" y2="136.89" gradientUnits="userSpaceOnUse">
<stop stop-color="#FCCBC1"/>
<stop offset="1" stop-color="#FFDBCB"/>
</linearGradient>
<linearGradient id="paint27_linear" x1="188.771" y1="179.448" x2="182.45" y2="161.342" gradientUnits="userSpaceOnUse">
<stop stop-color="#B1C2E4"/>
<stop offset="1" stop-color="white" stop-opacity="0.01"/>
</linearGradient>
<linearGradient id="paint28_linear" x1="194.908" y1="146.651" x2="203.36" y2="179.597" gradientUnits="userSpaceOnUse">
<stop stop-color="#5C47D6"/>
<stop offset="1" stop-color="#241C54"/>
</linearGradient>
<linearGradient id="paint29_linear" x1="162.525" y1="82.9745" x2="136.179" y2="96.878" gradientUnits="userSpaceOnUse">
<stop stop-color="#FEDBCB"/>
<stop offset="0.701101" stop-color="#FEDBCA"/>
<stop offset="1" stop-color="#FDD7C8"/>
</linearGradient>
<linearGradient id="paint30_linear" x1="138.705" y1="119.836" x2="139.547" y2="100.935" gradientUnits="userSpaceOnUse">
<stop stop-color="#FABEB9"/>
<stop offset="1" stop-color="#FEDBCA"/>
</linearGradient>
<linearGradient id="paint31_linear" x1="162.412" y1="39.8247" x2="116.678" y2="51.108" gradientUnits="userSpaceOnUse">
<stop stop-color="#1F1C44"/>
<stop offset="1" stop-color="#1F1C44"/>
</linearGradient>
<linearGradient id="paint32_linear" x1="137.47" y1="131.652" x2="143.429" y2="127.829" gradientUnits="userSpaceOnUse">
<stop stop-color="#EEF5FF"/>
<stop offset="1" stop-color="#ADC8F2"/>
</linearGradient>
<linearGradient id="paint33_linear" x1="108.939" y1="102.145" x2="93.222" y2="135.644" gradientUnits="userSpaceOnUse">
<stop stop-color="#F5F8FF"/>
<stop offset="1" stop-color="white"/>
</linearGradient>
<linearGradient id="paint34_linear" x1="163.107" y1="134.289" x2="159.191" y2="149.36" gradientUnits="userSpaceOnUse">
<stop stop-color="#EEF5FF"/>
<stop offset="1" stop-color="#D9E8FF"/>
</linearGradient>
<linearGradient id="paint35_linear" x1="17.0068" y1="71.8439" x2="5.5265" y2="94.2598" gradientUnits="userSpaceOnUse">
<stop stop-color="#CBDAF1"/>
<stop offset="1" stop-color="#9CB3DF"/>
</linearGradient>
<linearGradient id="paint36_linear" x1="99.1368" y1="262.872" x2="51" y2="262.872" gradientUnits="userSpaceOnUse">
<stop stop-color="#D9E5F6" stop-opacity="0.712636"/>
<stop offset="1" stop-color="#B2C6EA"/>
</linearGradient>
<linearGradient id="paint37_linear" x1="104.848" y1="288.805" x2="113.319" y2="256.965" gradientUnits="userSpaceOnUse">
<stop stop-color="#ACC5E9"/>
<stop offset="0.627469" stop-color="#D3E3FB"/>
<stop offset="1" stop-color="#EAF2FF"/>
</linearGradient>
<linearGradient id="paint38_linear" x1="59.7659" y1="229.445" x2="58.4189" y2="250.692" gradientUnits="userSpaceOnUse">
<stop stop-color="#86A8D9"/>
<stop offset="1" stop-color="#BCD0F2"/>
</linearGradient>
<linearGradient id="paint39_linear" x1="51.4434" y1="178.028" x2="96.0801" y2="224.549" gradientUnits="userSpaceOnUse">
<stop stop-color="#67FFC2"/>
<stop offset="0.444207" stop-color="#0AEDBB"/>
<stop offset="1" stop-color="#0AB6A5"/>
</linearGradient>
<linearGradient id="paint40_linear" x1="51.0633" y1="192.66" x2="57.4486" y2="241.776" gradientUnits="userSpaceOnUse">
<stop stop-color="#67FFC2"/>
<stop offset="0.444207" stop-color="#0AEDBB"/>
<stop offset="1" stop-color="#028E80"/>
</linearGradient>
<linearGradient id="paint41_linear" x1="79.1104" y1="204.65" x2="108.557" y2="250.651" gradientUnits="userSpaceOnUse">
<stop stop-color="#67FFC2"/>
<stop offset="0.447186" stop-color="#0AEDBB"/>
<stop offset="1" stop-color="#028E80"/>
</linearGradient>
</defs>
</svg>
